%TF.GenerationSoftware,KiCad,Pcbnew,10.0.2*%
%TF.CreationDate,2026-07-18T00:42:18-04:00*%
%TF.ProjectId,orpbheus work,6f727062-6865-4757-9320-776f726b2e6b,rev?*%
%TF.SameCoordinates,Original*%
%TF.FileFunction,Copper,L1,Top*%
%TF.FilePolarity,Positive*%
%FSLAX46Y46*%
G04 Gerber Fmt 4.6, Leading zero omitted, Abs format (unit mm)*
G04 Created by KiCad (PCBNEW 10.0.2) date 2026-07-18 00:42:18*
%MOMM*%
%LPD*%
G01*
G04 APERTURE LIST*
%TA.AperFunction,Conductor*%
%ADD10C,0.200000*%
%TD*%
%TA.AperFunction,ComponentPad*%
%ADD11C,2.000000*%
%TD*%
%TA.AperFunction,ComponentPad*%
%ADD12R,1.800000X1.800000*%
%TD*%
%TA.AperFunction,ComponentPad*%
%ADD13C,1.800000*%
%TD*%
%TA.AperFunction,SMDPad,CuDef*%
%ADD14R,5.100000X5.100000*%
%TD*%
%TA.AperFunction,SMDPad,CuDef*%
%ADD15C,17.800000*%
%TD*%
G04 APERTURE END LIST*
%TO.N,Net-(CR2032--)*%
D10*
X119730000Y-104500000D02*
X122500000Y-107000000D01*
X122500000Y-107000000D02*
X123500000Y-106000000D01*
X123500000Y-102500000D02*
X130000000Y-93000000D01*
X123500000Y-106000000D02*
X123500000Y-102500000D01*
%TO.N,Net-(D2-A)*%
X125000000Y-93500000D02*
X122500000Y-104500000D01*
X128500000Y-84000000D02*
X125000000Y-93500000D01*
%TO.N,Net-(CR2032-+)*%
X129000000Y-76500000D02*
X129000000Y-81000000D01*
X129000000Y-81000000D02*
X130000000Y-81000000D01*
X129000000Y-81500000D02*
X130000000Y-81500000D01*
X130000000Y-72500000D02*
X130000000Y-76000000D01*
X130000000Y-76000000D02*
X129000000Y-76500000D01*
X130000000Y-81000000D02*
X129000000Y-81500000D01*
X130000000Y-81500000D02*
X130000000Y-89000000D01*
X130000000Y-89000000D02*
X129000000Y-89000000D01*
X130000000Y-89000000D02*
X134500000Y-89000000D01*
%TO.N,Net-(CR2032--)*%
X130000000Y-93000000D02*
X136000000Y-93000000D01*
%TO.N,Net-(CR2032-+)*%
X135000000Y-88500000D02*
X140000000Y-90000000D01*
%TO.N,Net-(CR2032--)*%
X136000000Y-93000000D02*
X143000000Y-91000000D01*
X137500000Y-84500000D02*
X142875000Y-83500000D01*
X137500000Y-87500000D02*
X137500000Y-84500000D01*
X137960000Y-97500000D02*
X136000000Y-93000000D01*
X137960000Y-97500000D02*
X140000000Y-99500000D01*
X140000000Y-99500000D02*
X141000000Y-99000000D01*
%TO.N,Net-(D1-A)*%
X140500000Y-97500000D02*
X144500000Y-90000000D01*
%TO.N,Net-(CR2032--)*%
X141000000Y-99000000D02*
X142500000Y-96500000D01*
X142500000Y-96500000D02*
X143500000Y-96500000D01*
X142875000Y-72000000D02*
X142875000Y-83500000D01*
X143000000Y-87500000D02*
X137500000Y-87500000D01*
X143000000Y-91000000D02*
X143000000Y-87500000D01*
X143500000Y-96500000D02*
X144500000Y-99000000D01*
X145730000Y-97500000D02*
X144500000Y-99000000D01*
%TO.N,Net-(D1-A)*%
X146500000Y-85500000D02*
X140000000Y-85500000D01*
X146500000Y-86000000D02*
X144500000Y-90000000D01*
X148000000Y-97500000D02*
X144500000Y-90000000D01*
%TO.N,Net-(CR2032--)*%
X149500000Y-99000000D02*
X144500000Y-99000000D01*
X150000000Y-94500000D02*
X149500000Y-99000000D01*
%TO.N,Net-(CR2032-+)*%
X152000000Y-89500000D02*
X146500000Y-90000000D01*
X155500000Y-72000000D02*
X155500000Y-75500000D01*
X155500000Y-75500000D02*
X156500000Y-76000000D01*
X155500000Y-80500000D02*
X156500000Y-81000000D01*
X155500000Y-81000000D02*
X155500000Y-88500000D01*
X155500000Y-88500000D02*
X151500000Y-89500000D01*
X155500000Y-88500000D02*
X157500000Y-89000000D01*
X156500000Y-76000000D02*
X156500000Y-80500000D01*
X156500000Y-80500000D02*
X155500000Y-80500000D01*
X156500000Y-81000000D02*
X155500000Y-81000000D01*
%TO.N,Net-(CR2032--)*%
X156500000Y-93000000D02*
X150000000Y-94500000D01*
%TO.N,Net-(D3-A)*%
X159000000Y-84000000D02*
X161000000Y-88000000D01*
X161000000Y-88000000D02*
X161000000Y-94000000D01*
X161000000Y-94000000D02*
X166000000Y-104500000D01*
%TO.N,Net-(CR2032--)*%
X162500000Y-102000000D02*
X156500000Y-93000000D01*
X163230000Y-105000000D02*
X162500000Y-102000000D01*
%TD*%
D11*
%TO.P,SW4,1,1_1*%
%TO.N,Net-(D3-A)*%
X151750000Y-84250000D03*
X158250000Y-84250000D03*
%TO.P,SW4,2,2_2*%
%TO.N,Net-(CR2032-+)*%
X151750000Y-88750000D03*
X158250000Y-88750000D03*
%TD*%
D12*
%TO.P,D3,1,K_1*%
%TO.N,Net-(CR2032--)*%
X163230000Y-105000000D03*
D13*
%TO.P,D3,2,A_2*%
%TO.N,Net-(D3-A)*%
X165770000Y-105000000D03*
%TD*%
D11*
%TO.P,SW3,1,1_1*%
%TO.N,Net-(D2-A)*%
X128500000Y-84000000D03*
X135000000Y-84000000D03*
%TO.P,SW3,2,2_2*%
%TO.N,Net-(CR2032-+)*%
X128500000Y-88500000D03*
X135000000Y-88500000D03*
%TD*%
%TO.P,SW2,1,1_1*%
%TO.N,Net-(D1-A)*%
X140000000Y-85500000D03*
X146500000Y-85500000D03*
%TO.P,SW2,2,2_2*%
%TO.N,Net-(CR2032-+)*%
X140000000Y-90000000D03*
X146500000Y-90000000D03*
%TD*%
D12*
%TO.P,D1,1,K_1*%
%TO.N,Net-(CR2032--)*%
X145730000Y-97500000D03*
D13*
%TO.P,D1,2,A_2*%
%TO.N,Net-(D1-A)*%
X148270000Y-97500000D03*
%TD*%
D12*
%TO.P,D4,1,K_1*%
%TO.N,Net-(CR2032--)*%
X137960000Y-97500000D03*
D13*
%TO.P,D4,2,A_2*%
%TO.N,Net-(D1-A)*%
X140500000Y-97500000D03*
%TD*%
D12*
%TO.P,D2,1,K_1*%
%TO.N,Net-(CR2032--)*%
X119730000Y-104500000D03*
D13*
%TO.P,D2,2,A_2*%
%TO.N,Net-(D2-A)*%
X122270000Y-104500000D03*
%TD*%
D14*
%TO.P,CR2032,1,+_1*%
%TO.N,Net-(CR2032-+)*%
X130075000Y-72000000D03*
X155675000Y-72000000D03*
D15*
%TO.P,CR2032,2,-_2*%
%TO.N,Net-(CR2032--)*%
X142875000Y-72000000D03*
%TD*%
M02*
