%TF.GenerationSoftware,KiCad,Pcbnew,10.0.2*%
%TF.CreationDate,2026-07-18T00:42:18-04:00*%
%TF.ProjectId,orpbheus work,6f727062-6865-4757-9320-776f726b2e6b,rev?*%
%TF.SameCoordinates,Original*%
%TF.FileFunction,Profile,NP*%
%FSLAX46Y46*%
G04 Gerber Fmt 4.6, Leading zero omitted, Abs format (unit mm)*
G04 Created by KiCad (PCBNEW 10.0.2) date 2026-07-18 00:42:18*
%MOMM*%
%LPD*%
G01*
G04 APERTURE LIST*
%TA.AperFunction,Profile*%
%ADD10C,0.050000*%
%TD*%
G04 APERTURE END LIST*
D10*
X116250000Y-81750000D02*
X119250000Y-80250000D01*
X117750000Y-78250000D02*
X116250000Y-81750000D01*
X118250000Y-107750000D02*
X120750000Y-110750000D01*
X119250000Y-80250000D02*
X123750000Y-81250000D01*
X119250000Y-102250000D02*
X118250000Y-107750000D01*
X120250000Y-71250000D02*
X121250000Y-72750000D01*
X120250000Y-106750000D02*
X123750000Y-110750000D01*
X120750000Y-68750000D02*
X120250000Y-71250000D01*
X120750000Y-110750000D02*
X122250000Y-111750000D01*
X121250000Y-72750000D02*
X124750000Y-74750000D01*
X121750000Y-67250000D02*
X122250000Y-68750000D01*
X121750000Y-71250000D02*
X120750000Y-68750000D01*
X121750000Y-87250000D02*
X124250000Y-92250000D01*
X122250000Y-64750000D02*
X121750000Y-67250000D01*
X122250000Y-68750000D02*
X125750000Y-70750000D01*
X122250000Y-111750000D02*
X120250000Y-106750000D01*
X122750000Y-96250000D02*
X119250000Y-102250000D01*
X123250000Y-67250000D02*
X122250000Y-64750000D01*
X123750000Y-76750000D02*
X117750000Y-78250000D01*
X123750000Y-81250000D02*
X121750000Y-87250000D01*
X123750000Y-103250000D02*
X129750000Y-95250000D01*
X123750000Y-110750000D02*
X125750000Y-107750000D01*
X124250000Y-92250000D02*
X122750000Y-96250000D01*
X124750000Y-74750000D02*
X123750000Y-76750000D01*
X125250000Y-72750000D02*
X121750000Y-71250000D01*
X125250000Y-72750000D02*
X125750000Y-70750000D01*
X125750000Y-107750000D02*
X123750000Y-103250000D01*
X126250000Y-68250000D02*
X123250000Y-67250000D01*
X126250000Y-68250000D02*
X125250000Y-65250000D01*
X127250000Y-65750000D02*
X128750000Y-59250000D01*
X127750000Y-57750000D02*
X125250000Y-65250000D01*
X128750000Y-59250000D02*
X132250000Y-56250000D01*
X129750000Y-95250000D02*
X134250000Y-94750000D01*
X131250000Y-61250000D02*
X127250000Y-65750000D01*
X132250000Y-56250000D02*
X127750000Y-57750000D01*
X134250000Y-94750000D02*
X136250000Y-100250000D01*
X136250000Y-100250000D02*
X141250000Y-100250000D01*
X137250000Y-59750000D02*
X131250000Y-61250000D01*
X141250000Y-100250000D02*
X142250000Y-97250000D01*
X142250000Y-97250000D02*
X143500000Y-97500000D01*
X142750000Y-59000000D02*
X137250000Y-59750000D01*
X142750000Y-59000000D02*
X143000000Y-59000000D01*
X143000000Y-59000000D02*
X148500000Y-60000000D01*
X144500000Y-100500000D02*
X143500000Y-97500000D01*
X148500000Y-60000000D02*
X154500000Y-61500000D01*
X149500000Y-100500000D02*
X144500000Y-100500000D01*
X151500000Y-95000000D02*
X149500000Y-100500000D01*
X153500000Y-56500000D02*
X158000000Y-58000000D01*
X154500000Y-61500000D02*
X158500000Y-66000000D01*
X156000000Y-95500000D02*
X151500000Y-95000000D01*
X157000000Y-59500000D02*
X153500000Y-56500000D01*
X158000000Y-58000000D02*
X160500000Y-65500000D01*
X158500000Y-66000000D02*
X157000000Y-59500000D01*
X159500000Y-68500000D02*
X162500000Y-67500000D01*
X160000000Y-71000000D02*
X160500000Y-73000000D01*
X160000000Y-108000000D02*
X162000000Y-103500000D01*
X160500000Y-65500000D02*
X159500000Y-68500000D01*
X160500000Y-73000000D02*
X164000000Y-71500000D01*
X161000000Y-75000000D02*
X162000000Y-77000000D01*
X161500000Y-92500000D02*
X163000000Y-96500000D01*
X162000000Y-77000000D02*
X168000000Y-78500000D01*
X162000000Y-81500000D02*
X164000000Y-87500000D01*
X162000000Y-103500000D02*
X156000000Y-95500000D01*
X162000000Y-111000000D02*
X160000000Y-108000000D01*
X162500000Y-67500000D02*
X163500000Y-65000000D01*
X163000000Y-96500000D02*
X166500000Y-102500000D01*
X163500000Y-65000000D02*
X164000000Y-67500000D01*
X163500000Y-69000000D02*
X160000000Y-71000000D01*
X163500000Y-112000000D02*
X165500000Y-107000000D01*
X164000000Y-67500000D02*
X163500000Y-69000000D01*
X164000000Y-71500000D02*
X165000000Y-69000000D01*
X164000000Y-87500000D02*
X161500000Y-92500000D01*
X164500000Y-73000000D02*
X161000000Y-75000000D01*
X165000000Y-69000000D02*
X165500000Y-71500000D01*
X165000000Y-111000000D02*
X163500000Y-112000000D01*
X165500000Y-71500000D02*
X164500000Y-73000000D01*
X165500000Y-107000000D02*
X162000000Y-111000000D01*
X166500000Y-80500000D02*
X162000000Y-81500000D01*
X166500000Y-102500000D02*
X167500000Y-108000000D01*
X167500000Y-108000000D02*
X165000000Y-111000000D01*
X168000000Y-78500000D02*
X169500000Y-82000000D01*
X169500000Y-82000000D02*
X166500000Y-80500000D01*
M02*
